<!-- <svg height="512" viewBox="0 0 512 512" width="512" xmlns="http://www.w3.org/2000/svg" xmlns:xlink="http://www.w3.org/1999/xlink"><linearGradient id="a" x1="100%" x2="50%" y1="5.663%" y2="50%"><stop offset="0" stop-color="#007b55"/><stop offset="1" stop-color="#00ab55"/></linearGradient><linearGradient id="b" x1="50%" x2="50%" y1="0%" y2="100%"><stop offset="0" stop-color="#5be584"/><stop offset="1" stop-color="#00ab55"/></linearGradient><g fill="none" fill-rule="evenodd" transform="translate(14 128)"><path d="m92.8065878 83.1065019c44.2888442 22.8889511 46.3079382 23.9345951 46.4006692 23.9799821.012248.008728.642121.333419 44.792743 23.152545-26.071507 48.53952-42.693165 77.265922-49.868472 86.179207-10.758587 13.369926-22.495227 23.492946-36.929824 29.333888-30.3458978 14.261953-68.070062 14.928791-97.201704-2.704011z" fill="url(#a)"/><g fill="url(#b)"><path d="m430.310491 101.726093c-46.270793-80.9559274-94.100378-157.2284394-149.043472-45.3437359-7.516227 14.3833977-12.994566 42.3366008-25.267019 42.3366008v-.1420279c-12.272453 0-17.749057-27.9532032-25.265283-42.3366009-54.94483-111.8847034-102.774415-35.6121915-149.0452076 45.3437359-3.4821132 6.105448-6.8270943 11.9321-9.6895094 16.99601 106.037811-67.1266136 97.11034 135.666494 184 137.277897v.142028c86.891396-1.611403 77.962189-204.4045106 184-137.27965-2.860679-5.062157-6.20566-10.888809-9.689509-16.994257"/><path d="m436 256c26.5088 0 48-21.4912 48-48s-21.4912-48-48-48-48 21.4912-48 48 21.4912 48 48 48"/></g></g></svg> -->
<svg xmlns="http://www.w3.org/2000/svg" viewBox="0 0 100 100"><path fill="#f1bc19" d="M77 12A1 1 0 1 0 77 14A1 1 0 1 0 77 12Z"></path><path fill="#e4e4f9" d="M50 13A37 37 0 1 0 50 87A37 37 0 1 0 50 13Z"></path><path fill="#f1bc19" d="M83 11A4 4 0 1 0 83 19A4 4 0 1 0 83 11Z"></path><path fill="#8889b9" d="M87 22A2 2 0 1 0 87 26A2 2 0 1 0 87 22Z"></path><path fill="#fbcd59" d="M81 74A2 2 0 1 0 81 78 2 2 0 1 0 81 74zM15 59A4 4 0 1 0 15 67 4 4 0 1 0 15 59z"></path><path fill="#8889b9" d="M25 85A2 2 0 1 0 25 89A2 2 0 1 0 25 85Z"></path><path fill="#fff" d="M18.5 49A2.5 2.5 0 1 0 18.5 54 2.5 2.5 0 1 0 18.5 49zM79.5 32A1.5 1.5 0 1 0 79.5 35 1.5 1.5 0 1 0 79.5 32z"></path><path fill="#78cdd4" d="M66.5,53.5h-14V39.602c0-0.69,0.1-1.375,0.297-2.036L55.5,28.5h8l2.703,9.066 c0.197,0.661,0.297,1.347,0.297,2.036V53.5z"></path><path fill="#fff" d="M65.736,36H53.264l-0.467,1.566C52.6,38.227,52.5,38.913,52.5,39.603V53.5h14V39.603 c0-0.69-0.1-1.375-0.297-2.037L65.736,36z"></path><path fill="#472b29" d="M66.5,54h-14c-0.276,0-0.5-0.224-0.5-0.5V39.603c0-0.738,0.107-1.472,0.318-2.179l2.703-9.066 C55.084,28.146,55.279,28,55.5,28h8c0.221,0,0.416,0.146,0.479,0.357l2.703,9.066C66.893,38.131,67,38.864,67,39.603V53.5 C67,53.776,66.776,54,66.5,54z M53,53h13V39.603c0-0.642-0.093-1.279-0.276-1.894L63.127,29h-7.255l-2.597,8.709 C53.093,38.323,53,38.961,53,39.603V53z"></path><path fill="#ceccbe" d="M54.5 26.5H64.5V29.5H54.5z"></path><path fill="#472b29" d="M64.5,30h-10c-0.276,0-0.5-0.224-0.5-0.5v-3c0-0.276,0.224-0.5,0.5-0.5h10 c0.276,0,0.5,0.224,0.5,0.5v3C65,29.776,64.776,30,64.5,30z M55,29h9v-2h-9V29z"></path><path fill="#f37e98" d="M40 36.5A7.5 7.5 0 1 0 40 51.5A7.5 7.5 0 1 0 40 36.5Z"></path><path fill="#472b29" d="M40,52c-4.411,0-8-3.589-8-8s3.589-8,8-8s8,3.589,8,8S44.411,52,40,52z M40,37c-3.86,0-7,3.141-7,7 s3.14,7,7,7s7-3.141,7-7S43.86,37,40,37z"></path><path fill="#472b29" d="M43.307 39.854c-.053 0-.105-.017-.15-.051C42.241 39.114 41.149 38.75 40 38.75c-.138 0-.25-.112-.25-.25s.112-.25.25-.25c1.259 0 2.455.399 3.458 1.155.11.083.132.239.049.35C43.458 39.82 43.383 39.854 43.307 39.854zM35.193 41.575c-.042 0-.083-.01-.122-.031-.121-.067-.164-.22-.097-.341.732-1.313 1.927-2.276 3.364-2.71.131-.041.271.034.312.167.04.132-.035.271-.167.312-1.312.396-2.403 1.275-3.072 2.476C35.366 41.529 35.281 41.575 35.193 41.575zM34.5 44.25c-.138 0-.25-.112-.25-.25 0-.565.082-1.124.244-1.661.04-.133.179-.207.312-.167.132.04.207.179.167.312-.147.49-.222 1-.222 1.517C34.75 44.138 34.638 44.25 34.5 44.25z"></path><path fill="#f9e65c" d="M60.615,52.1l-13.911,5.366c-1.054,0.407-2.238-0.118-2.644-1.172l-3.846-9.971 c-0.406-1.054,0.118-2.238,1.172-2.644l13.911-5.366c1.054-0.407,2.238,0.118,2.644,1.172l3.846,9.971 C62.193,50.509,61.668,51.693,60.615,52.1z"></path><path fill="#472b29" d="M45.971,58.103c-1.022,0-1.989-0.62-2.378-1.629l-3.846-9.972c-0.505-1.309,0.149-2.784,1.458-3.291 l13.911-5.365c0.634-0.245,1.326-0.228,1.947,0.048s1.099,0.776,1.343,1.411l3.846,9.972c0.245,0.634,0.228,1.325-0.047,1.947 c-0.275,0.621-0.777,1.098-1.411,1.343l-13.91,5.366C46.584,58.048,46.275,58.103,45.971,58.103z M56.033,38.675 c-0.188,0-0.376,0.034-0.557,0.104l-13.911,5.365c-0.794,0.307-1.192,1.203-0.885,1.998l3.846,9.972 c0.307,0.794,1.202,1.189,1.999,0.885l13.91-5.366c0,0,0,0,0,0c0.385-0.148,0.689-0.438,0.856-0.814 c0.167-0.378,0.177-0.797,0.029-1.183l-3.846-9.972c-0.149-0.385-0.438-0.689-0.816-0.856 C56.458,38.719,56.246,38.675,56.033,38.675z"></path><path fill="#60be92" d="M32.354,72.3c-0.873,0-1.617-0.654-1.729-1.521L27.88,49.7H72.12l-2.745,21.077 c-0.113,0.868-0.856,1.522-1.729,1.522H32.354z"></path><path fill="#472b29" d="M71.323,50.4l-2.642,20.288c-0.068,0.52-0.513,0.913-1.035,0.913H32.354 c-0.523,0-0.968-0.393-1.035-0.913L28.677,50.4H71.323 M72.917,49H27.083l2.847,21.868C30.09,72.088,31.127,73,32.354,73h35.291 c1.228,0,2.265-0.912,2.424-2.132L72.917,49L72.917,49z"></path><g><path fill="#60be92" d="M26.212,50.3c-0.282,0-0.512-0.229-0.512-0.512v-3.576c0-0.282,0.229-0.512,0.512-0.512h47.576 c0.282,0,0.512,0.229,0.512,0.512v3.576c0,0.282-0.229,0.512-0.512,0.512H26.212z"></path><path fill="#472b29" d="M73.6,46.4v3.2H26.4v-3.2H73.6 M73.788,45H26.212C25.543,45,25,45.542,25,46.212v3.576 C25,50.458,25.543,51,26.212,51h47.576C74.457,51,75,50.458,75,49.788v-3.576C75,45.542,74.457,45,73.788,45L73.788,45z"></path></g><g><path fill="#00ac9c" d="M38,67.3c-0.717,0-1.3-0.583-1.3-1.3V56c0-0.717,0.583-1.3,1.3-1.3s1.3,0.583,1.3,1.3v10 C39.3,66.717,38.717,67.3,38,67.3z"></path><path fill="#472b29" d="M38,55.4c0.331,0,0.6,0.269,0.6,0.6v10c0,0.331-0.269,0.6-0.6,0.6s-0.6-0.269-0.6-0.6V56 C37.4,55.669,37.669,55.4,38,55.4 M38,54c-1.105,0-2,0.896-2,2v10c0,1.104,0.895,2,2,2s2-0.896,2-2V56C40,54.896,39.105,54,38,54 L38,54z"></path></g><g><path fill="#00ac9c" d="M46,67.3c-0.717,0-1.3-0.583-1.3-1.3V56c0-0.717,0.583-1.3,1.3-1.3s1.3,0.583,1.3,1.3v10 C47.3,66.717,46.717,67.3,46,67.3z"></path><path fill="#472b29" d="M46,55.4c0.331,0,0.6,0.269,0.6,0.6v10c0,0.331-0.269,0.6-0.6,0.6s-0.6-0.269-0.6-0.6V56 C45.4,55.669,45.669,55.4,46,55.4 M46,54c-1.105,0-2,0.896-2,2v10c0,1.104,0.895,2,2,2s2-0.896,2-2V56C48,54.896,47.105,54,46,54 L46,54z"></path></g><g><path fill="#00ac9c" d="M54,67.3c-0.717,0-1.3-0.583-1.3-1.3V56c0-0.717,0.583-1.3,1.3-1.3s1.3,0.583,1.3,1.3v10 C55.3,66.717,54.717,67.3,54,67.3z"></path><path fill="#472b29" d="M54,55.4c0.331,0,0.6,0.269,0.6,0.6v10c0,0.331-0.269,0.6-0.6,0.6s-0.6-0.269-0.6-0.6V56 C53.4,55.669,53.669,55.4,54,55.4 M54,54c-1.105,0-2,0.896-2,2v10c0,1.104,0.895,2,2,2s2-0.896,2-2V56C56,54.896,55.105,54,54,54 L54,54z"></path></g><g><path fill="#00ac9c" d="M62,67.3c-0.717,0-1.3-0.583-1.3-1.3V56c0-0.717,0.583-1.3,1.3-1.3s1.3,0.583,1.3,1.3v10 C63.3,66.717,62.717,67.3,62,67.3z"></path><path fill="#472b29" d="M62,55.4c0.331,0,0.6,0.269,0.6,0.6v10c0,0.331-0.269,0.6-0.6,0.6s-0.6-0.269-0.6-0.6V56 C61.4,55.669,61.669,55.4,62,55.4 M62,54c-1.105,0-2,0.896-2,2v10c0,1.104,0.895,2,2,2s2-0.896,2-2V56C64,54.896,63.105,54,62,54 L62,54z"></path></g><g><path fill="#472b29" d="M64,46.25c-0.138,0-0.25-0.112-0.25-0.25v-2.375c0-0.138,0.112-0.25,0.25-0.25s0.25,0.112,0.25,0.25 V46C64.25,46.138,64.138,46.25,64,46.25z"></path></g><g><path fill="#472b29" d="M64,41.958c-0.138,0-0.25-0.112-0.25-0.25v-2.319c0-0.897-0.125-1.791-0.372-2.655l-0.369-1.29 c-0.038-0.133,0.039-0.271,0.171-0.309c0.133-0.042,0.271,0.039,0.309,0.172l0.369,1.29c0.26,0.908,0.391,1.848,0.391,2.792v2.319 C64.25,41.846,64.138,41.958,64,41.958z"></path></g><g><path fill="#472b29" d="M62.652,33.534c-0.109,0-0.209-0.071-0.24-0.182l-0.652-2.284c-0.038-0.133,0.039-0.271,0.171-0.309 c0.132-0.042,0.271,0.039,0.309,0.172l0.652,2.284c0.038,0.133-0.039,0.271-0.171,0.309C62.698,33.531,62.675,33.534,62.652,33.534 z"></path></g><g><path fill="#472b29" d="M66.5,69c-0.021,0-0.042-0.001-0.063-0.004c-0.274-0.034-0.468-0.284-0.434-0.558l0.276-2.213 c0.035-0.273,0.28-0.469,0.558-0.435c0.274,0.034,0.468,0.284,0.434,0.558l-0.276,2.213C66.964,68.814,66.749,69,66.5,69z"></path></g><g><path fill="#472b29" d="M67.045,64.646c-0.021,0-0.042-0.001-0.063-0.004c-0.274-0.034-0.468-0.284-0.434-0.558l0.834-6.678 c0.035-0.273,0.286-0.478,0.558-0.434c0.274,0.034,0.468,0.284,0.434,0.558l-0.834,6.677 C67.509,64.462,67.293,64.646,67.045,64.646z"></path></g><g><path fill="#472b29" d="M68.153,55.78c-0.021,0-0.042-0.001-0.063-0.004c-0.274-0.034-0.468-0.284-0.434-0.559l0.348-2.78 c0.035-0.273,0.286-0.479,0.558-0.434c0.274,0.034,0.468,0.284,0.434,0.559l-0.348,2.78C68.617,55.596,68.401,55.78,68.153,55.78z"></path></g></svg>